<svg width="37" height="30" viewBox="0 0 37 30" fill="none" xmlns="http://www.w3.org/2000/svg">
<path d="M18.5041 7.30838C13.2544 7.30838 9.01991 10.7425 9.01991 15C9.01991 19.2575 13.2544 22.6916 18.5041 22.6916C23.7539 22.6916 27.9883 19.2575 27.9883 15C27.9883 10.7425 23.7539 7.30838 18.5041 7.30838ZM18.5041 20.0006C15.1116 20.0006 12.3381 17.758 12.3381 15C12.3381 12.242 15.1033 9.99944 18.5041 9.99944C21.9049 9.99944 24.6701 12.242 24.6701 15C24.6701 17.758 21.8967 20.0006 18.5041 20.0006ZM30.5885 6.99375C30.5885 7.99119 29.5979 8.7878 28.3763 8.7878C27.1464 8.7878 26.1641 7.98449 26.1641 6.99375C26.1641 6.00301 27.1547 5.19971 28.3763 5.19971C29.5979 5.19971 30.5885 6.00301 30.5885 6.99375ZM36.87 8.81457C36.7297 6.41136 36.0528 4.28261 33.8819 2.52873C31.7193 0.774852 29.0944 0.225929 26.1311 0.105433C23.077 -0.0351445 13.923 -0.0351445 10.8689 0.105433C7.91383 0.219235 5.28896 0.768158 3.11807 2.52204C0.947183 4.27591 0.278583 6.40466 0.130006 8.80788C-0.0433352 11.2847 -0.0433352 18.7086 0.130006 21.1854C0.270329 23.5886 0.947183 25.7174 3.11807 27.4713C5.28896 29.2252 7.90558 29.7741 10.8689 29.8946C13.923 30.0351 23.077 30.0351 26.1311 29.8946C29.0944 29.7808 31.7193 29.2318 33.8819 27.4713C36.0446 25.7174 36.7214 23.5886 36.87 21.1854C37.0433 18.7086 37.0433 11.2914 36.87 8.81457ZM32.9244 23.843C32.2806 25.1551 31.0342 26.1659 29.4081 26.6947C26.9731 27.478 21.195 27.2972 18.5041 27.2972C15.8132 27.2972 10.0269 27.4713 7.60017 26.6947C5.98232 26.1726 4.73592 25.1618 4.08383 23.843C3.11807 21.8682 3.34094 17.1823 3.34094 15C3.34094 12.8177 3.12632 8.12507 4.08383 6.15698C4.72766 4.84492 5.97407 3.8341 7.60017 3.30526C10.0352 2.52204 15.8132 2.70278 18.5041 2.70278C21.195 2.70278 26.9813 2.52873 29.4081 3.30526C31.0259 3.8274 32.2723 4.83822 32.9244 6.15698C33.8902 8.13176 33.6673 12.8177 33.6673 15C33.6673 17.1823 33.8902 21.8749 32.9244 23.843Z" fill="black"/>
</svg>
