<svg width="52" height="30" viewBox="0 0 52 30" fill="none" xmlns="http://www.w3.org/2000/svg">
<path d="M26.0058 7.30838C18.6278 7.30838 12.6766 10.7425 12.6766 15C12.6766 19.2575 18.6278 22.6916 26.0058 22.6916C33.3838 22.6916 39.335 19.2575 39.335 15C39.335 10.7425 33.3838 7.30838 26.0058 7.30838ZM26.0058 20.0006C21.2379 20.0006 17.3401 17.758 17.3401 15C17.3401 12.242 21.2263 9.99944 26.0058 9.99944C30.7853 9.99944 34.6715 12.242 34.6715 15C34.6715 17.758 30.7737 20.0006 26.0058 20.0006ZM42.9892 6.99375C42.9892 7.99119 41.5971 8.7878 39.8802 8.7878C38.1517 8.7878 36.7712 7.98449 36.7712 6.99375C36.7712 6.00301 38.1633 5.19971 39.8802 5.19971C41.5971 5.19971 42.9892 6.00301 42.9892 6.99375ZM51.8173 8.81457C51.6201 6.41136 50.6688 4.28261 47.6178 2.52873C44.5785 0.774852 40.8895 0.225929 36.7248 0.105433C32.4326 -0.0351445 19.5674 -0.0351445 15.2752 0.105433C11.1221 0.219235 7.43313 0.768158 4.38215 2.52204C1.33118 4.27591 0.391523 6.40466 0.182711 8.80788C-0.0609035 11.2847 -0.0609035 18.7086 0.182711 21.1854C0.379922 23.5886 1.33118 25.7174 4.38215 27.4713C7.43313 29.2252 11.1105 29.7741 15.2752 29.8946C19.5674 30.0351 32.4326 30.0351 36.7248 29.8946C40.8895 29.7808 44.5785 29.2318 47.6178 27.4713C50.6572 25.7174 51.6085 23.5886 51.8173 21.1854C52.0609 18.7086 52.0609 11.2914 51.8173 8.81457ZM46.2722 23.843C45.3673 25.1551 43.6156 26.1659 41.3303 26.6947C37.9081 27.478 29.7876 27.2972 26.0058 27.2972C22.224 27.2972 14.0919 27.4713 10.6813 26.6947C8.40759 26.1726 6.65588 25.1618 5.73943 23.843C4.38215 21.8682 4.69537 17.1823 4.69537 15C4.69537 12.8177 4.39375 8.12507 5.73943 6.15698C6.64428 4.84492 8.39598 3.8341 10.6813 3.30526C14.1035 2.52204 22.224 2.70278 26.0058 2.70278C29.7876 2.70278 37.9197 2.52873 41.3303 3.30526C43.604 3.8274 45.3557 4.83822 46.2722 6.15698C47.6294 8.13176 47.3162 12.8177 47.3162 15C47.3162 17.1823 47.6294 21.8749 46.2722 23.843Z" fill="black"/>
</svg>
