<svg width="49" height="29" viewBox="0 0 49 29" fill="none" xmlns="http://www.w3.org/2000/svg">
<path d="M45.0449 7.00254C45.0639 7.30877 45.0639 7.61508 45.0639 7.92131C45.0639 17.2619 38.8774 28.0244 27.5702 28.0244C24.0867 28.0244 20.8506 26.865 18.1285 24.8526C18.6235 24.9182 19.0993 24.9401 19.6133 24.9401C22.4876 24.9401 25.1336 23.8245 27.2466 21.9213C24.5435 21.8557 22.2783 19.8213 21.4978 17.0213C21.8785 17.0869 22.2592 17.1307 22.659 17.1307C23.211 17.1307 23.7631 17.0431 24.277 16.8901C21.4598 16.2338 19.3468 13.3901 19.3468 9.95568V9.86821C20.1653 10.3932 21.1171 10.7213 22.1259 10.765C20.4698 9.49626 19.3848 7.33066 19.3848 4.88064C19.3848 3.56816 19.6894 2.36504 20.2224 1.31503C23.2491 5.60253 -4.47301 -0.281933 0.62848 0.0243698C0.533323 -0.500634 32.7478 7.63696 32.7478 7.09007C32.7478 3.19628 35.4889 0.0244388 38.8963 0.0244388C40.6666 0.0244388 42.2656 0.877561 43.3887 2.25569C44.7783 1.94945 46.1107 1.3588 47.291 0.549442C46.8341 2.1901 45.8633 3.56823 44.5879 4.44317C45.8253 4.29012 47.0245 3.89628 48.1285 3.34946C47.2911 4.74941 46.2441 5.99623 45.0449 7.00254Z" fill="black"/>
</svg>
